<svg xmlns="http://www.w3.org/2000/svg" width="250" height="180" viewBox="0 0 250 180" fill="none">

    <!-- VB 主体蓝色 -->
<path d="M 224.67,88.53 C 233.79,80.78 237.71,72.41 237.08,62.92 C 235.11,37.07 218.07,27 194.91,27 H 123.91 C 109.16,27 102.09,33.11 97.82,45.2 L 70.11,116.19 C 69.44,117.76 68.89,117.68 68.41,116.22 L 41.91,44.43 C 37.71,34.29 31.45,26.82 20.07,26.82 C 8.69,26.82 4.31,35.11 5.95,43.77 C 6.33,45.83 7.21,47.98 8.23,50.52 L 45.84,139.87 C 50.07,150.01 59.13,156.45 68.06,156.45 C 78.73,156.45 85.92,149.61 90.35,139.07 L 119.97,65.09 C 123.27,58.25 129.78,54.36 138.91,54.36 H 193.76 C 202.29,54.36 207.11,60.18 207.11,66.79 C 207.11,73.99 200.94,78.76 193.91,78.76 H 170.07 L 160.41,103.85 H 198.91 C 207.95,103.85 213.46,110.29 213.46,117.41 C 213.46,125.31 206.78,130.51 197.41,130.51 H 148.36 L 138.34,156.45 H 193.19 C 219.91,156.45 239.89,145.69 244.18,127.01 C 247.92,111.41 239.71,94.39 224.67,88.53 Z" fill="#2F6FD6"/>
    <!-- 黄色部分 -->
<path d="M 137.11,78.76 C 128.08,78.76 123.32,82.99 121.36,88.6 L 93.97,156.45 H 127.62 L 160.19,78.76 H 137.11 Z" fill="#F4C200"/>
    <defs>
<linearGradient id="paint0_linear_120_139" x1="18.1226" y1="136.821" x2="220.321" y2="18.5202" gradientUnits="userSpaceOnUse">
<stop stop-color="#2D78D1"/>
<stop offset="1" stop-color="#56B1EF"/>
</linearGradient>
<linearGradient id="paint1_linear_120_139" x1="107.369" y1="154.652" x2="140.771" y2="77.0009" gradientUnits="userSpaceOnUse">
<stop stop-color="#F0B900"/>
<stop offset="1" stop-color="#FFCD00"/>
</linearGradient>
</defs>
</svg>