<svg xmlns="http://www.w3.org/2000/svg" width="250" height="250" viewBox="0 0 250 250" fill="none">
<rect width="250" height="250" fill="none"/>
    <!-- VB 主体蓝色 -->
<path d="M 224.67,88.53 C 233.79,80.78 237.71,72.41 237.08,62.92 C 235.11,37.07 218.07,27 194.91,27 H 123.91 C 109.16,27 102.09,33.11 97.82,45.2 L 70.11,116.19 C 69.44,117.76 68.89,117.68 68.41,116.22 L 41.91,44.43 C 37.71,34.29 31.45,26.82 20.07,26.82 C 8.69,26.82 4.31,35.11 5.95,43.77 C 6.33,45.83 7.21,47.98 8.23,50.52 L 45.84,139.87 C 50.07,150.01 59.13,156.45 68.06,156.45 C 78.73,156.45 85.92,149.61 90.35,139.07 L 119.97,65.09 C 123.27,58.25 129.78,54.36 138.91,54.36 H 193.76 C 202.29,54.36 207.11,60.18 207.11,66.79 C 207.11,73.99 200.94,78.76 193.91,78.76 H 170.07 L 160.41,103.85 H 198.91 C 207.95,103.85 213.46,110.29 213.46,117.41 C 213.46,125.31 206.78,130.51 197.41,130.51 H 148.36 L 138.34,156.45 H 193.19 C 219.91,156.45 239.89,145.69 244.18,127.01 C 247.92,111.41 239.71,94.39 224.67,88.53 Z" fill="#2F6FD6"/>
    <!-- 黄色部分 -->
<path d="M 137.11,78.76 C 128.08,78.76 123.32,82.99 121.36,88.6 L 93.97,156.45 H 127.62 L 160.19,78.76 H 137.11 Z" fill="#F4C200"/>
<path d="M 32.22,182.09 H 41.51 L 47.92,201.91 H 48.02 L 54.63,182.09 H 62.79 L 52.23,210.19 H 44.28 L 32.22,182.09 Z" fill="#020203"/>
<path d="M 65.41,190.29 C 65.88,182.94 71.78,181.31 77.95,181.31 C 84.98,181.31 89.99,183.25 89.99,190.29 V 204.81 C 89.99,207.11 90.15,208.31 90.82,210.19 H 82.81 C 82.55,209.36 82.45,208.42 82.39,207.53 C 79.98,210.24 77.31,210.97 73.53,210.97 C 67.58,210.97 64.64,207.74 64.64,203.01 C 64.64,197.25 68.75,195.51 74.92,194.73 C 79.93,194.05 82.23,194.16 82.23,191.34 V 190.71 C 82.23,188.51 80.76,187.52 77.72,187.52 C 74.92,187.52 73.31,188.67 73.04,191.13 L 65.41,190.29 Z M 82.71,198.19 V 197.3 C 80.82,198.45 78.62,198.51 76.48,198.88 C 74.18,199.35 72.41,200.13 72.41,202.64 C 72.41,204.74 74.02,205.73 76.38,205.73 C 80.45,205.73 82.71,203.11 82.71,198.19 Z" fill="#020203"/>
<path d="M 96.86,181.73 H 104.62 V 186.25 H 104.73 C 106.45,182.91 108.81,181.21 113.14,181.21 C 120.81,181.21 125.15,187.63 125.15,196.1 C 125.15,204.25 120.66,210.61 113.41,210.61 C 109.74,210.61 107.12,209.09 105.4,206.42 H 105.29 V 222.91 H 96.86 V 181.73 Z M 110.72,187.94 C 106.39,187.94 104.73,191.76 104.73,196.26 C 104.73,200.65 106.6,204.31 110.83,204.31 C 115.11,204.31 116.72,200.76 116.72,196.26 C 116.72,192.02 115.01,187.94 110.72,187.94 Z" fill="#020203"/>
<path d="M 129.06,170.91 H 137.49 V 185.72 H 137.6 C 139.37,182.85 141.89,181.52 145.71,181.52 C 153.38,181.52 157.72,187.94 157.72,196.41 C 157.72,204.56 153.7,210.61 145.98,210.61 C 142.31,210.61 139.42,209.31 137.71,206.12 H 137.6 V 210.19 H 129.06 V 170.91 Z M 143.81,187.83 C 139.47,187.83 137.22,191.71 137.22,196.21 C 137.22,200.6 139.42,204.15 143.65,204.15 C 147.93,204.15 149.55,200.18 149.55,195.68 C 149.55,191.45 147.56,187.83 143.81,187.83 Z" fill="#020203"/>
<path d="M 188.81,210.19 H 182.1 V 204.31 H 181.94 C 180.28,208.67 177.29,210.61 173.11,210.61 C 165.92,210.61 163.08,206.42 163.08,198.82 V 182.09 H 171.14 V 197.82 C 171.14,202.17 172.75,203.94 176.06,203.94 C 179.73,203.94 182.15,201.54 182.15,196.05 V 182.09 H 188.81 V 210.19 Z" fill="#020203"/>
<path d="M 210.46,213.91 C 208.31,220.01 205.42,222.63 199.42,222.63 C 197.7,222.63 196.34,222.42 195.03,222.16 L 196.13,214.92 C 197.23,215.13 198.38,215.44 199.47,215.44 C 201.94,215.44 203.19,213.91 203.19,211.24 L 192.95,182.09 H 201.22 L 208.15,202.48 H 208.26 L 214.68,182.09 H 223.7 L 210.46,213.91 Z" fill="#020203"/>
<defs>
<linearGradient id="paint0_linear_120_139" x1="18.1226" y1="136.821" x2="220.321" y2="18.5202" gradientUnits="userSpaceOnUse">
<stop stop-color="#2D78D1"/>
<stop offset="1" stop-color="#56B1EF"/>
</linearGradient>
<linearGradient id="paint1_linear_120_139" x1="107.369" y1="154.652" x2="140.771" y2="77.0009" gradientUnits="userSpaceOnUse">
<stop stop-color="#F0B900"/>
<stop offset="1" stop-color="#FFCD00"/>
</linearGradient>
</defs>
</svg>